<?xml version="1.0" encoding="UTF-8" standalone="no"?>
<!-- Created with Inkscape (http://www.inkscape.org/) -->

<svg
   width="17.531843mm"
   height="17.531843mm"
   viewBox="0 0 17.531843 17.531843"
   version="1.1"
   id="svg1"
   xml:space="preserve"
   xmlns:xlink="http://www.w3.org/1999/xlink"
   xmlns="http://www.w3.org/2000/svg"
   xmlns:svg="http://www.w3.org/2000/svg"><defs
     id="defs1"><linearGradient
       id="linearGradient14"><stop
         style="stop-color:#010020;stop-opacity:1;"
         offset="0"
         id="stop14" /><stop
         style="stop-color:#7d0000;stop-opacity:1;"
         offset="1"
         id="stop15" /></linearGradient><linearGradient
       xlink:href="#linearGradient14"
       id="linearGradient15"
       x1="104.44064"
       y1="193.76561"
       x2="118.95505"
       y2="193.76561"
       gradientUnits="userSpaceOnUse"
       gradientTransform="translate(-0.05137248,-0.66784229)" /></defs><g
     id="layer1"
     transform="translate(-102.24066,-184.42216)"><circle
       style="fill:#ffffff;fill-opacity:1;stroke:none;stroke-width:0;stroke-linecap:round;stroke-linejoin:bevel;stroke-dasharray:none;stroke-opacity:0"
       id="path13"
       cx="111.00658"
       cy="193.18808"
       r="8.7659216" /><path
       id="path7-4-8-8"
       style="fill:url(#linearGradient15);stroke:none;stroke-width:0;stroke-dasharray:none"
       d="m 117.63593,191.85527 c -0.34634,0.01 -0.6984,0.17619 -1.02168,0.50175 -0.3746,0.3773 -0.55036,0.75803 -0.73487,1.59343 -0.18149,0.82168 -0.24356,0.97379 -0.49233,1.20454 -0.2374,0.22027 -0.51076,0.25978 -0.85433,0.12339 l -0.26266,-0.10419 0.13255,0.16679 c 0.38554,0.4858 0.80071,0.72214 1.22183,0.69594 0.2177,-0.0135 0.3185,-0.0577 0.67258,-0.29564 0.26681,-0.17931 0.4655,-0.34611 0.55276,-0.46381 0.2129,-0.28715 0.35582,-0.67542 0.51103,-1.38917 0.16611,-0.76408 0.27703,-1.00149 0.56567,-1.21278 0.25765,-0.1885 0.43779,-0.20808 0.76351,-0.0827 0.22712,0.0874 0.24755,0.0864 0.17922,-0.01 -0.35237,-0.49562 -0.78798,-0.74079 -1.23329,-0.72793 z m -4.33319,-4.15561 c -0.29422,-0.005 -0.59919,0.0671 -0.90012,0.22256 -0.48824,0.25237 -0.74969,0.56758 -1.09436,1.3197 -0.33901,0.73977 -0.4343,0.86829 -0.75532,1.01673 -0.3064,0.14174 -0.62482,0.0982 -0.99518,-0.13662 l -0.28307,-0.17959 0.12435,0.2006 c 0.36219,0.58511 0.79841,0.93822 1.2834,1.03913 0.25068,0.0522 0.37306,0.0397 0.81544,-0.0841 0.33338,-0.0933 0.5868,-0.1948 0.70529,-0.28239 0.28912,-0.21372 0.51437,-0.54614 0.80609,-1.18948 0.31226,-0.68868 0.47694,-0.88535 0.8404,-1.00303 0.32436,-0.10495 0.53339,-0.0698 0.88514,0.14898 0.24524,0.15255 0.26893,0.15768 0.20635,0.0442 -0.39452,-0.71458 -0.99113,-1.1045 -1.63842,-1.11681 z m 2.9567,1.22192 c -0.59427,-0.0118 -1.20837,0.21913 -1.792,0.70326 -0.72842,0.60424 -1.09205,1.25542 -1.52186,2.72532 -0.42276,1.44578 -0.55354,1.70775 -1.03507,2.07324 -0.45955,0.34895 -0.96508,0.36447 -1.58033,0.048 l -0.47039,-0.24172 0.22444,0.32763 c 0.65396,0.95566 1.3897,1.46767 2.16497,1.50661 0.40073,0.0201 0.59084,-0.0394 1.26629,-0.39619 0.31455,-0.1662 0.57248,-0.32695 0.77083,-0.47296 l -0.0164,-0.0206 0.0286,0.0114 c 0.11673,-0.0867 0.21746,-0.1695 0.28128,-0.24127 l -2e-5,-4.6e-4 c 0.42188,-0.47466 0.72612,-1.14544 1.08887,-2.40179 0.38834,-1.34494 0.61767,-1.75103 1.17025,-2.07323 0.49319,-0.28746 0.82576,-0.28611 1.40948,0.007 0.40696,0.20425 0.44518,0.20661 0.33037,0.0192 -0.62501,-1.0203 -1.45103,-1.55607 -2.31958,-1.57332 z m -8.0872,-0.81887 -3.78297,10.15415 3.95436,0.0772 1.85697,-5.58954 0.98748,1.95213 c 0.25716,-0.01 0.49537,-0.10086 0.72243,-0.27327 0.48152,-0.36548 0.61231,-0.62745 1.03507,-2.07322 0.0885,-0.30274 0.17438,-0.56376 0.26107,-0.80379 l -0.5925,-1.17851 c -0.13194,0.1972 -0.26307,0.3385 -0.41098,0.44782 -0.11848,0.0877 -0.37191,0.1891 -0.70529,0.2824 -0.44238,0.12381 -0.56476,0.13626 -0.81544,0.0842 -0.48499,-0.10093 -0.9212,-0.45404 -1.2834,-1.03915 l -0.12434,-0.20059 0.28306,0.17958 c 0.37036,0.2348 0.68879,0.27839 0.99518,0.13664 0.32103,-0.14844 0.41632,-0.27697 0.75532,-1.01674 0.13518,-0.29504 0.25776,-0.52103 0.38606,-0.70418 l -0.18597,-0.37014 z m 6.61098,6.57978 c -0.0652,0.093 -0.13207,0.18141 -0.20317,0.26138 l 1e-5,4.8e-4 c -0.0638,0.0718 -0.16453,0.15451 -0.28128,0.24126 l 0.23393,0.0928 c 0.21616,0.0858 0.40446,0.10171 0.57356,0.047 z m -0.49691,0.51227 c -0.19835,0.14599 -0.45627,0.30677 -0.77082,0.47295 -0.67544,0.35686 -0.86555,0.41634 -1.2663,0.39618 -0.13512,-0.007 -0.26907,-0.0292 -0.40154,-0.0645 l 0.75701,1.49657 c 0.0575,0.10825 0.12944,0.21698 0.21548,0.3258 0.0894,0.11862 0.18425,0.22294 0.28502,0.31256 0.0936,0.0895 0.19137,0.15952 0.29315,0.21021 0.10506,0.0605 0.2003,0.0916 0.28558,0.0932 l 3.01645,0.0584 -1.23786,-2.46254 c -0.36536,-0.0358 -0.72386,-0.26935 -1.05988,-0.69276 z" /></g></svg>
